<svg xmlns="http://www.w3.org/2000/svg" viewBox="0 0 80 80" fill="none">
  <path d="M24 8 C24 24 56 24 56 40 C56 56 24 56 24 72" stroke="white" stroke-width="2.5" stroke-linecap="round"/>
  <path d="M56 8 C56 24 24 24 24 40 C24 56 56 56 56 72" stroke="white" stroke-width="2.5" stroke-linecap="round"/>
  <line x1="24" y1="8" x2="56" y2="8" stroke="white" stroke-width="2" stroke-linecap="round"/>
  <line x1="30" y1="20" x2="50" y2="20" stroke="white" stroke-width="1.5" stroke-linecap="round" opacity="0.6"/>
  <line x1="56" y1="40" x2="24" y2="40" stroke="white" stroke-width="2" stroke-linecap="round"/>
  <line x1="50" y1="60" x2="30" y2="60" stroke="white" stroke-width="1.5" stroke-linecap="round" opacity="0.6"/>
  <line x1="24" y1="72" x2="56" y2="72" stroke="white" stroke-width="2" stroke-linecap="round"/>
  <circle cx="24" cy="8" r="3" fill="white"/>
  <circle cx="56" cy="8" r="3" fill="white"/>
  <circle cx="56" cy="40" r="3" fill="white"/>
  <circle cx="24" cy="40" r="3" fill="white"/>
  <circle cx="24" cy="72" r="3" fill="white"/>
  <circle cx="56" cy="72" r="3" fill="white"/>
</svg>
